<?xml version="1.0" encoding="UTF-8" standalone="no"?>
<!-- Created with Inkscape (http://www.inkscape.org/) -->

<svg
   xmlns:dc="http://purl.org/dc/elements/1.1/"
   xmlns:cc="http://creativecommons.org/ns#"
   xmlns:rdf="http://www.w3.org/1999/02/22-rdf-syntax-ns#"
   xmlns:svg="http://www.w3.org/2000/svg"
   xmlns="http://www.w3.org/2000/svg"
   xmlns:xlink="http://www.w3.org/1999/xlink"
   xmlns:sodipodi="http://sodipodi.sourceforge.net/DTD/sodipodi-0.dtd"
   xmlns:inkscape="http://www.inkscape.org/namespaces/inkscape"
   version="1.1"
   width="847.01202"
   height="1015.0312"
   id="svg2"
   inkscape:version="0.48.4 r9939"
   sodipodi:docname="ROMANO Y CRISTIANO.svg">
  <sodipodi:namedview
     pagecolor="#ffffff"
     bordercolor="#666666"
     borderopacity="1"
     objecttolerance="10"
     gridtolerance="10"
     guidetolerance="10"
     inkscape:pageopacity="0"
     inkscape:pageshadow="2"
     inkscape:window-width="1280"
     inkscape:window-height="947"
     id="namedview47"
     showgrid="false"
     inkscape:zoom="0.5"
     inkscape:cx="373.85249"
     inkscape:cy="452.72309"
     inkscape:window-x="-9"
     inkscape:window-y="-9"
     inkscape:window-maximized="1"
     inkscape:current-layer="svg2" />
  <defs
     id="defs4" />
  <g
     id="g3051">
    <path
       style="fill:#ffd833;stroke:#554400;stroke-width:4;stroke-linejoin:miter;stroke-miterlimit:1;stroke-dasharray:none"
       id="escutcheon"
       d="m 4.6226323,3.012141 c -2.21812,122.928629 -2.08146,307.350879 0,447.036369 2.0163,134.56568 8.7379697,239.60192 69.1214997,321.71905 72.731498,98.91613 193.898198,170.31051 349.762398,240.44124 155.8641,-70.13073 277.0371,-141.52932 349.7665,-240.44124 60.3816,-82.11713 67.1053,-167.58551 69.1153,-302.15747 2.0899,-139.68333 2.2223,-343.66932 0,-466.595951 l -837.7656977,0 z" />
    <g
       id="tail"
       transform="translate(-971.10587,-28.03125)" />
  </g>
  <metadata
     id="metadata32146">
    <rdf:RDF>
      <cc:Work
         rdf:about="">
        <dc:title />
        <dc:format>image/svg+xml</dc:format>
        <dc:type
           rdf:resource="http://purl.org/dc/dcmitype/StillImage" />
      </cc:Work>
    </rdf:RDF>
  </metadata>
  <g
     transform="matrix(1,0,0,0.969,1.1340971,36.968084)"
     id="g3051-7">
    <circle
       style="fill:none;stroke:#aa0000;stroke-width:5;stroke-opacity:1"
       id="circle4455-0"
       transform="matrix(1.8927906,0,0,1.8927906,-520.73704,-740.93405)"
       r="42"
       cy="423.20901"
       cx="426.46701"
       sodipodi:cx="426.46701"
       sodipodi:cy="423.20901"
       sodipodi:rx="42"
       sodipodi:ry="42"
       d="m 468.46701,423.20901 c 0,23.19596 -18.80404,42 -42,42 -23.19596,0 -42,-18.80404 -42,-42 0,-23.19595 18.80404,-42 42,-42 23.19596,0 42,18.80405 42,42 z" />
    <rect
       style="fill:#1a1a1a;fill-opacity:1;fill-rule:evenodd;stroke:none"
       id="smoothening_line_2-9"
       y="163.2155"
       x="417.36435"
       height="336.15179"
       width="12.283643" />
    <g
       id="tail-4"
       transform="translate(-971.10587,-28.03125)">
      <path
         inkscape:connector-curvature="0"
         style="fill:#1a1a1a;fill-opacity:1;stroke:#000000;stroke-width:6.11218548;stroke-linecap:butt;stroke-linejoin:miter;stroke-miterlimit:4;stroke-opacity:1;stroke-dasharray:none"
         id="path4201-8-8"
         d="m 1394.1875,453.375 0,0.46875 c -38.5685,20.63178 -34.1992,71.7066 -15.875,132.6875 -3.8335,33.41873 -11.216,74.40211 -14.0937,86.65625 -26.3475,72.46013 -107.96,54.92443 -112.7188,27.96875 -16.4999,48.95631 35.7798,47.58508 105.2812,30.1875 -12.6007,34.8667 -37.2047,50.86511 -84.9062,53.3125 -42.0572,-0.5183 -53.4009,43.64446 -19.1875,67.875 -13.4107,-55.47928 19.3566,-49.3704 44.375,-47.5 25.1643,-2.02966 61.5735,-36.73814 76.4063,-50.40625 3.0367,57.44935 -15.4134,98.99725 -61.9376,114.40625 22.5044,9.15556 45.1155,11.43576 68.5938,-44.78125 7.4414,32.36978 16.839,65.93001 -21.8438,70.65625 13.483,19.53449 23.1823,15.98099 31.5,3.78125 -2.516,24.96835 -0.4834,67.25602 -15.3437,86.84375 11.1907,-2.73139 18.0083,18.45495 20.1875,24.40625 2.1792,-5.9513 8.9655,-27.13764 20.1562,-24.40625 -14.8603,-19.58773 -12.8277,-61.8754 -15.3437,-86.84375 8.3177,12.19974 18.017,15.75324 31.5,-3.78125 -38.6828,-4.72624 -29.2851,-38.28647 -21.8437,-70.65625 23.4782,56.21701 46.0894,53.93681 68.5937,44.78125 -46.5242,-15.409 -64.9742,-56.9569 -61.9375,-114.40625 14.8328,13.66811 51.242,48.37659 76.4062,50.40625 25.0185,-1.8704 57.7857,-7.97928 44.375,47.5 34.2135,-24.23054 22.8697,-68.3933 -19.1874,-67.875 -47.7015,-2.44739 -72.3055,-18.4458 -84.9063,-53.3125 69.5014,17.39758 121.7812,18.76881 105.2813,-30.1875 -4.7588,26.95568 -86.3401,44.49138 -112.6876,-27.96875 -2.8777,-12.25414 -10.2602,-53.23752 -14.0937,-86.65625 18.3224,-60.97474 22.6809,-112.05165 -15.875,-132.6875 l 0,-0.46875 c -0.145,0.0746 -0.2937,0.14335 -0.4375,0.21875 -0.1457,-0.0764 -0.2906,-0.14319 -0.4375,-0.21875 z" />
      <path
         inkscape:connector-curvature="0"
         style="fill:#2d2d2d;fill-opacity:1;stroke:none"
         id="path4201-2-8-8"
         d="m 1370.5938,525.96875 c 1.7908,17.90973 6.959,37.8562 13.3124,59 -3.8334,33.41863 -11.1846,79.40211 -14.0624,91.65625 -26.3475,72.46012 -99.8643,56.45376 -115.2188,40.09375 8.2234,29.27865 56.992,22.37078 113.375,4.46875 -12.6008,34.8667 -23.6026,59.93088 -93,68.9375 -42.0573,-0.51831 -44.3085,29.53313 -27.25,52.25 -10.8879,-50.93829 25.919,-44.83916 50.9375,-42.96875 25.1642,-2.02967 64.0736,-42.76939 78.9063,-56.4375 3.0367,57.4493 -6.3196,109.59099 -52.8438,125 21.9998,1.58722 32.9905,-2.18924 56.4688,-58.40625 7.4413,32.36978 22.9015,84.08625 -15.7813,88.8125 7.933,6.9206 20.8697,-0.76902 29.1875,-12.96875 8.3178,12.19973 21.2545,19.88935 29.1875,12.96875 -38.6828,-4.72625 -23.2539,-56.44272 -15.8125,-88.8125 23.4783,56.21701 34.469,59.99347 56.4688,58.40625 -46.5243,-15.40901 -55.8806,-67.5507 -52.8438,-125 14.8327,13.66811 53.7733,54.40783 78.9375,56.4375 25.0185,-1.87041 61.8254,-7.96954 50.9375,42.96875 17.0585,-22.71687 14.8073,-52.76831 -27.25,-52.25 -69.3974,-9.00662 -80.3992,-34.0708 -93,-68.9375 56.383,17.90203 105.1516,24.8099 113.375,-4.46875 -15.3545,16.36001 -88.9026,32.36637 -115.25,-40.09375 -2.8779,-12.25414 -10.229,-58.23762 -14.0625,-91.65625 6.3535,-21.1438 11.5529,-41.09027 13.3437,-59 -10.21,13.29683 -24.0312,12.83211 -24.0312,13.125 0,-0.29289 -13.8212,0.17183 -24.0312,-13.125 z m 24.0312,359.4375 c -2.516,24.96835 0.673,83.5216 -10.1875,91 9.2271,0.68011 10.1281,6.16696 10.1875,10.21875 0,-0.0806 0,-0.16827 0,-0.25 0.094,-4.0252 1.1135,-9.30223 10.1562,-9.96875 -10.8605,-7.4784 -7.6402,-66.03165 -10.1562,-91 z m 0,101.21875 c -0.011,0.71761 0,1.40821 0,2 l 0,-1.625 c -5e-4,-0.11835 0,-0.25389 0,-0.375 z" />
      <path
         inkscape:connector-curvature="0"
         style="fill:#4d4d4c;fill-opacity:1;fill-rule:evenodd;stroke:#4d4d4c;stroke-width:2.01604986;stroke-miterlimit:4;stroke-opacity:1;stroke-dasharray:none;display:inline"
         id="rect75302-3-1-6-2"
         d="m 1375.6091,540.03125 c 3.6734,16.48257 13.784,32.18606 15.8588,48.90625 -0.476,91.22568 2.3166,188.01287 3.1571,280.53125 0.8405,-92.51838 3.6331,-189.30557 3.1571,-280.53125 2.0748,-16.72019 12.1855,-32.42368 15.8588,-48.90625 l -19.0159,37.03125 -19.0159,-37.03125 z m 19.0159,329.4375 c -0.2802,30.83946 -0.3478,61.1963 0,90.71875 0.3479,-29.52245 0.2802,-59.87929 0,-90.71875 z" />
    </g>
    <g
       id="eagle_dexter-4"
       transform="translate(-971.10587,-28.03125)">
      <path
         inkscape:connector-curvature="0"
         style="fill:#000000;fill-opacity:1;fill-rule:evenodd;stroke:none"
         id="rect76118-5-4-2-5-1-5"
         d="m 1234.618,379.14138 c 2.611,-2.37828 -3.3138,-1.34485 -4.6549,3.64834 -4.6932,50.03273 -21.5857,99.2191 -54.8838,137.45674 -8.605,6.49443 -4.9113,11.86845 1.0197,5.96667 40.678,-40.51742 53.5947,-100.29189 59.369,-140.58902 -1.2307,-14.05874 0.2534,-4.07005 -0.85,-6.48273 z m -95.1781,-97.04686 c 3.4171,-0.89276 -2.3095,-2.73055 -5.8171,1.06775 -27.4028,42.12347 -65.215,77.82926 -112.4672,96.21717 -10.6373,1.75263 -9.8635,8.22749 -1.8694,5.75729 54.8464,-16.97769 94.0575,-63.90656 117.8943,-96.90681 5.4424,-13.02086 2.1154,-3.48628 2.2594,-6.1354 z m 58.143,79.2552 c -1.8338,-1.97884 3.3386,-9.5132 -4.0116,-7.02594 1.8852,-0.83293 -2.9902,20.99832 -7.2183,31.41421 -4.2282,10.41591 -11.343,25.08825 -21.0047,41.28112 -9.6618,16.1929 -21.8704,33.90641 -36.2862,50.40437 -14.4158,16.49802 -31.0387,31.78067 -49.5289,43.11202 -10.2204,3.4303 -8.4216,9.69827 -0.9251,5.98205 49.5169,-26.4398 83.9609,-80.17082 101.9423,-116.622 9.5701,-17.28562 12.8214,-31.89865 17.0325,-48.54583 z M 1084.3932,257.92334 c -7.75,8.75046 -10.7745,13.54272 -17.2662,20.08373 -6.4916,6.54108 -10.1182,10.1602 -15.4717,14.82495 -5.3536,4.66476 -10.1681,8.47467 -14.5037,11.59621 -4.3355,3.12155 -8.1922,5.55476 -11.63,7.46621 -3.4378,1.9114 -6.4568,3.30106 -9.117,4.33544 -2.6603,1.03441 -4.9618,1.71355 -6.9646,2.204 -2.0029,0.49047 -3.7071,0.79223 -5.1727,1.07183 -1.4656,0.27958 -2.6927,0.53703 -3.7413,0.93885 l 0.623,0.62591 -0.362,-0.0892 c 30.0266,1.45332 65.4092,-33.33115 81.9731,-51.98887 3.1317,-3.52767 17.4981,-23.01313 19.1209,-25.03384 1.6321,-4.61881 0.01,-5.18902 -3.5215,-4.57978 z m -90.4477,-70.63443 0.18096,0.0352 0.22582,0.095 c 31.65162,1.16143 75.28272,-42.28359 81.36002,-50.90683 -0.1904,-3.44045 -3.6561,-0.17813 -2.7693,-1.34101 -49.7561,48.8321 -78.71581,51.99982 -78.99743,52.11783 z m 287.9861,211.90013 -4.8207,-0.86168 c 0.4377,21.54937 -9.4696,64.72974 -22.4478,89.39182 -9.7563,16.6308 1.8054,4.05078 1.7033,0.66519 12.4387,-14.02213 23.5161,-63.40667 25.615,-88.63036 z M 1076.5762,175.58165 c -49.8389,79.12381 -70.3642,76.38696 -78.12136,80.91823 l 0.7162,0.5167 -0.3716,-0.0294 c 35.51196,-4.07946 70.19556,-59.94517 78.20806,-74.13919 -0.2117,-3.45582 -0.205,-4.42443 -0.4311,-7.26647 z m 90.8889,144.19518 c -1.5465,-2.21061 1.5642,-0.81895 -1.9844,-1.24488 7.9248,-2.2714 -50.5623,99.24192 -130.0174,134.04801 -10.593,2.00321 -9.6666,8.45803 -1.733,5.79981 84.9809,-31.36006 140.7792,-138.47907 136.0462,-136.61547 z" />
      <path
         inkscape:connector-curvature="0"
         style="fill:#1a1a1a;fill-opacity:1;stroke:#000000;stroke-width:6.11218548;stroke-linecap:butt;stroke-linejoin:miter;stroke-miterlimit:4;stroke-opacity:1;stroke-dasharray:none"
         id="path4195-7-5"
         d="m 1324.0233,263.48198 -29.6847,3.62926 c -9.009,18.17783 -49.6925,53.65131 -44.9724,7.17943 0.6351,-19.20924 -13.2322,-27.21058 -26.4277,-20.8441 -12.7944,5.98615 -25.4203,-9.46031 -11.5389,-26.05504 11.0501,-15.21911 -17.3744,-56.31718 -48.3888,-20.09968 -25.5466,23.70573 -76.6068,-39.54 -39.4556,-55.08807 22.0246,-8.75152 7.378,-25.19408 -5.6481,-27.52038 17.4933,-5.80804 7.4429,-25.069041 27.237,-45.434011 -60.9399,-47.062818 -95.6984,76.966811 -155.08613,81.413661 3.51917,16.03114 26.90693,12.74729 86.91243,-31.67095 -5.56,32.60842 -45.8915,65.43591 -84.06549,82.23175 22.79219,28.36036 68.12849,-21.73443 79.14489,-36.7611 1.8513,6.40946 7.4822,12.5488 4.0387,19.72741 -18.6822,59.66308 -47.5058,71.417 -73.527,79.39241 30.375,36.14838 82.7176,-21.74937 89.739,-46.98047 4.1438,9.32721 8.7676,14.40788 17.4825,22.37794 -19.8234,54.13669 -63.7527,75.132 -96.9044,94.71441 47.8436,23.07788 102.3619,-37.01405 115.5155,-71.26479 3.2008,7.01817 6.3886,14.0439 12.8712,19.18674 -25.671,60.59737 -98.464,114.28956 -121.656,123.22655 23.0567,45.81866 136.1604,-73.64703 142.6925,-102.63211 2.3409,6.60211 6.8856,12.18107 11.5034,17.72607 -48.8479,123.5756 -93.1388,126.95425 -136.0003,154.06938 68.4638,26.37241 144.7784,-81.77862 154.2155,-135.13953 2.5788,5.39914 5.7675,10.6763 10.7353,15.59762 -13.562,82.29231 -60.6494,148.03193 -114.9337,186.38273 69.5757,21.28453 127.4491,-118.07573 137.3498,-173.08043 6.9927,6.18064 9.9545,9.28516 17.3856,12.16182 2.1804,42.07745 -22.6913,96.5602 -38.7856,125.14768 47.3704,1.05635 64.8312,-94.29042 64.3336,-117.72323 6.46,3.38081 10.6161,4.43087 18.7203,5.13542 6.0098,20.19088 -12.9907,86.43213 -18.6371,88.33191 34.3752,-12.73669 41.8543,-41.05008 42.8987,-84.10265 l 30.9776,-9.7863 c 26.2448,-50.47273 6.2114,-92.50427 -18.0416,-133.44935 z" />
      <g
         id="g4259-0-1"
         transform="matrix(0.95853624,-0.122326,0.122326,0.95853624,927.95669,519.20333)">
        <use
           xlink:href="#claw-4-5"
           height="1052.3622"
           width="744.09448"
           y="0"
           x="0"
           id="use4257-4-7"
           transform="matrix(-0.93633111,-0.3511183,-0.3511183,0.93633111,494.26337,106.43577)" />
        <path
           inkscape:connector-curvature="0"
           style="fill:#aa0000;fill-opacity:1;stroke:#780000;stroke-width:5.22146511;stroke-linecap:butt;stroke-linejoin:miter;stroke-miterlimit:4;stroke-opacity:1;stroke-dasharray:none"
           id="path4199-6-1"
           d="m 345.89285,82.183607 c -32.10024,37.478553 -57.59901,79.377253 -97.01652,102.221253 -10.25424,7.6677 -50.24712,-4.5743 -56.44227,-21.7183 5.1275,-12.728 2.70027,-19.2256 -18.94036,-14.6473 -14.5583,3.5188 -32.91909,-1.1115 -39.14341,-9.0913 -6.58221,-4.2892 -11.46688,2.3411 -13.13198,14.1421 10.53989,22.1512 29.82431,15.3862 38.63833,3.9144 7.27907,3.3716 13.20172,3.5274 19.1929,11.4904 19.1753,24.5214 39.66727,34.5595 61.87184,25.7589 -3.75205,4.7038 -7.4843,9.4135 -14.52094,13.132 -14.65068,1.3414 -30.33536,1.5026 -39.01714,-3.7881 -14.65883,-25.0572 -25.7062,-4.9169 -40.15357,-4.2931 -23.51883,2.4832 -24.37126,-27.0703 -31.31473,-3.7881 -3.99061,50.2231 29.25899,9.5005 41.6688,9.849 2.60313,0.1539 7.31232,-0.5294 6.81853,1.7678 -4.19678,23.1592 13.26516,-6.7279 19.44543,11.3642 6.12058,3.9136 21.15786,2.2927 36.87057,0.2525 -27.22915,14.6935 -51.26026,19.4446 -68.88766,18.3048 -4.35294,-0.8666 -6.9331,-0.3165 -10.07568,2.4238 -17.67141,15.5254 9.52114,36.7043 19.61688,9.8285 14.38853,-8.3442 33.27059,-9.0494 50.76016,-12.1218 6.41336,-0.5763 16.10035,-4.4169 20.48597,-9.7641 17.4457,-21.2708 29.23896,-4.5609 52.24502,-14.227 21.59294,-11.1661 35.73851,-7.7035 47.98224,-0.5051 11.61117,8.233 -4.621,-24.3349 -14.14213,-25.2538 -18.67234,0.1439 -17.27725,21.4092 -62.12438,13.132 16.38287,-12.9615 42.70919,-24.4254 47.22463,-42.679 24.34576,-15.6891 46.50719,-35.2008 68.1853,-55.55836 z" />
        <path
           inkscape:connector-curvature="0"
           style="fill:#1a1a1a;fill-opacity:1;stroke:#000000;stroke-width:6.32528305;stroke-linecap:butt;stroke-linejoin:miter;stroke-miterlimit:4;stroke-opacity:1;stroke-dasharray:none"
           id="path4197-3-1"
           d="m 434.05656,-66.593337 c -2.48878,30.50785 -37.98425,84.598994 -52.62799,105.384094 -19.35354,12.96764 -29.69774,30.96085 -36.96428,44.82143 l 25.17857,20.535713 c 17.26061,-12.604323 27.25248,-27.480113 37.05888,-42.413873 19.6504,-12.63335 34.94789,-32.93081 48.92942,-50.79238 z" />
        <g
           id="claw-4-5"
           transform="translate(0.53571429,-882.14286)">
          <path
             inkscape:connector-curvature="0"
             style="fill:#aa0000;fill-opacity:1;stroke:#780000;stroke-width:3.13287902;stroke-linecap:butt;stroke-linejoin:miter;stroke-miterlimit:4;stroke-opacity:1;stroke-dasharray:none"
             id="path4211-5-2"
             d="m 91.059597,1027.8792 c 10.111203,-1.4628 23.875563,-2.6314 34.876343,6.4415 3.54176,-1.6235 5.66631,-4.499 6.37332,-8.6268 -11.52743,-10.6585 -26.41531,-18.4888 -41.249663,2.1853 z" />
          <path
             inkscape:connector-curvature="0"
             style="fill:#cc0000;fill-opacity:1;stroke:none"
             id="path4231-7-7"
             d="m 101.56646,1022.8796 c 13.61137,-1.9697 19.57628,2.3211 24.62208,6.3124 1.76152,-0.8075 1.65213,-1.1497 2.00377,-3.2027 -6.26449,-4.5144 -20.18463,-12.0048 -26.62585,-3.1097 z" />
        </g>
        <use
           xlink:href="#claw-4-5"
           height="1052.3622"
           width="744.09448"
           y="0"
           x="0"
           id="use4237-9-6"
           transform="matrix(0.94589148,-0.32448315,0.32448315,0.94589148,-49.984763,106.98058)" />
        <use
           xlink:href="#claw-4-5"
           height="1052.3622"
           width="744.09448"
           y="0"
           x="0"
           style="stroke-width:5.22146511;stroke-miterlimit:4;stroke-dasharray:none"
           id="use4237-1-0-1"
           transform="matrix(0.65665798,-0.75418851,0.75418851,0.65665798,-50.666257,252.0902)" />
      </g>
      <path
         inkscape:connector-curvature="0"
         style="fill:#1a1a1a;fill-opacity:1;stroke:#000000;stroke-width:6.11218548;stroke-linecap:butt;stroke-linejoin:miter;stroke-miterlimit:4;stroke-opacity:1;stroke-dasharray:none"
         id="path3386-4-4"
         d="m 1394.6148,199.46237 c -0.3445,-1.34638 -0.7001,-2.68924 -1.0701,-4.02859 -9.3025,-33.67786 -26.6302,-65.13881 -51.7488,-94.4228 12.4797,-0.35782 12.8457,-1.404301 17.5333,-9.491953 -16.9443,7.612845 -23.5429,2.211023 -34.3098,-8.577443 13.7714,-0.276686 12.2584,-2.021298 18.7631,-9.523485 -22.5796,8.552606 -26.9079,1.895101 -45.2522,-6.370014 22.522,0.10123 19.12,-0.837706 26.6783,-9.555019 -26.9116,10.360445 -45.9645,-1.447556 -68.3042,-1.355993 -7.2229,0.360725 -14.5827,1.722746 -19.6146,3.721097 -14.0056,4.313087 -26.9217,13.588613 -38.5038,28.696594 l 55.4695,26.899116 c 69.2382,-27.724881 118.4989,90.49904 88.4234,119.13817 -30.2359,19.44746 -47.6431,39.34279 -15.389,90.03162 8.7766,13.48513 8.832,47.55296 -8.3567,79.026 9.1452,27.75415 37.7972,105.0899 69.9288,124.32814 1.9065,1.14146 3.223,2.78831 5.7528,2.78831" />
      <path
         inkscape:connector-curvature="0"
         style="fill:#2d2d2d;fill-opacity:1;stroke:none"
         id="path3386-1-6-2"
         d="m 1394.6148,221.52605 c 0,-2.12172 -6.913,1.49412 -7.3602,-1.21265 -5.0685,-30.67886 -37.2988,-95.77983 -61.2988,-123.759791 3.4028,-2.21974 -1.4849,-0.0098 3.2027,-1.811661 -7.8933,-1.046842 -28.0273,-15.543942 -21.5933,-16.551433 -19.7743,-8.17642 -21.6848,-8.868068 -15.6991,-13.620674 0.9337,0.152372 13.5906,0.765079 -2.0488,0.424527 -25.1019,1.911865 -49.1059,-10.507768 -70.6774,14.748361 22.6854,5.42922 29.3639,8.797224 35.7236,20.608871 58.7998,-11.081484 113.3705,58.58065 104.0071,112.00318 -5.4491,26.55895 -8.4929,26.04694 -29.2167,44.32401 -13.8443,12.13171 -16.4295,26.66001 6.0236,61.94604 8.7765,13.48519 13.4849,54.51638 -3.7038,85.98944 2.422,7.35022 5.6868,16.25651 9.5826,25.75315 3.8958,9.49665 8.4226,19.58364 13.3687,29.29525 4.9461,9.71161 10.3113,19.04784 15.884,27.04295 5.5727,7.99512 23.8058,23.1338 23.8058,24.65274" />
      <path
         inkscape:connector-curvature="0"
         style="fill:#ffffff;stroke:none"
         id="path4158-4-3"
         d="m 1243.4605,82.303477 c -0.056,-2.652854 29.186,-5.085516 28.1112,2.23397 -2.9472,11.15489 -23.1594,19.822333 -28.1112,-2.23397 z" />
      <path
         inkscape:connector-curvature="0"
         style="fill:#cc0000;fill-opacity:1;stroke:none"
         id="path4162-7-4-9-2"
         d="m 1162.3626,123.15735 c 10.7341,11.26985 27.9903,18.2199 30.6242,3.08978 2.9182,2.6682 1.3743,6.24398 3.8835,5.44599 10.7637,-3.42309 14.4068,-12.57009 21.7742,-20.47294 12.9077,-11.857462 25.2736,-6.06467 26.1067,9.5045 -10.215,-0.92161 -17.1934,3.12102 -22.918,7.79001 -6.5077,6.00652 -12.7467,11.13114 -20.4898,14.04266 -16.9623,6.31315 -33.904,2.21117 -38.9808,-19.4 z" />
      <path
         inkscape:connector-curvature="0"
         style="fill:#db1212;fill-opacity:1;stroke:none"
         id="path4162-7-5-2"
         d="m 1161.9758,121.35226 c 10.7341,11.26984 27.9903,18.21989 30.6242,3.08977 2.9182,2.6682 1.3743,6.24398 3.8835,5.44599 10.7637,-3.42308 14.4068,-12.57009 21.7742,-20.47294 15.4864,-7.86045 21.7923,-5.8068 25.591,6.02324 -9.1835,-3.3714 -17.3224,-0.61812 -23.047,4.05088 -6.5077,6.00651 -11.973,13.45198 -19.7161,16.3635 -16.9624,6.31315 -30.5517,6.46604 -39.1098,-14.50044 z" />
      <path
         inkscape:connector-curvature="0"
         style="fill:none;stroke:#780000;stroke-width:3.02733302;stroke-linecap:butt;stroke-linejoin:miter;stroke-miterlimit:4;stroke-opacity:1;stroke-dasharray:none"
         id="path4162-8-5-1"
         d="m 1162.0446,122.81424 c 10.7341,11.26984 27.9904,18.21989 30.6242,3.08977 2.9182,2.6682 1.3743,6.24398 3.8836,5.44599 10.7636,-3.42308 14.4067,-12.57009 21.7742,-20.47294 12.9076,-11.85746 25.2735,-6.06467 26.1066,9.5045 -10.215,-0.92161 -17.1934,3.12102 -22.918,7.79002 -6.5077,6.00651 -12.7466,11.13114 -20.4898,14.04265 -16.9623,6.31315 -33.904,2.21117 -38.9808,-19.39999 z" />
      <path
         inkscape:connector-curvature="0"
         style="fill:#cc0000;fill-opacity:1;stroke:#780000;stroke-width:3.02733302;stroke-linecap:butt;stroke-linejoin:miter;stroke-miterlimit:4;stroke-opacity:1;stroke-dasharray:none"
         id="path4160-6-8-6"
         d="m 1199.9416,86.48962 c -5.7878,3.317654 -21.077,4.463631 -29.3226,2.560831 -13.2064,-3.047555 -28.172,10.092039 -25.3875,30.289569 36.8608,-34.257595 19.0492,4.66797 71.1634,-13.01514 19.2188,-5.85684 27.4719,11.08778 25.616,22.07437 -1.9481,12.42067 -13.211,21.4382 -20.1796,29.64842 17.4097,1.68283 31.6163,-24.76623 38.597,-44.37825 3.278,-9.20285 -46.741,-36.08251 -60.4867,-27.1798 z" />
      <path
         inkscape:connector-curvature="0"
         style="fill:#db1212;fill-opacity:1;stroke:none"
         id="path4160-1-0-8"
         d="m 1203.31,88.803562 c -5.7878,3.317654 -20.7537,5.918174 -28.9993,4.015374 -13.2064,-3.047576 -23.3236,4.920365 -27.0036,19.622984 28.5157,-32.739268 25.1707,3.35966 67.4462,-15.439361 21.4815,-1.97809 35.2294,17.229141 33.3735,28.215731 -1.9481,12.42068 -12.8878,24.34727 -18.725,28.19389 14.9064,-8.25232 18.8753,-20.44813 26.1526,-39.3682 3.0967,-8.8704 -40.612,-30.268687 -52.2444,-25.240418 z" />
      <path
         inkscape:connector-curvature="0"
         style="fill:#780000;fill-opacity:1;stroke:#7a0000;stroke-width:1.2528429;stroke-miterlimit:4;stroke-opacity:1;stroke-dasharray:none"
         id="path4615-4-5"
         d="m 1204.3874,94.118802 c -2.5945,0.129752 -4.3005,-2.128023 0.7576,-4.139484 1.2956,-0.515202 -6.5079,-0.919351 -6.6569,5.418966 0,0.0555 0.5829,-6.370144 7.0339,-5.561523 2.4042,1.549207 1.6445,3.80673 -0.9754,4.254967 z" />
      <path
         inkscape:connector-curvature="0"
         style="fill:#ffcc00;fill-opacity:1;stroke:#000000;stroke-width:1.00911117;stroke-miterlimit:4;stroke-opacity:1"
         id="path4205-2-7"
         d="m 1260.9549,87.12235 c 0,4.164477 -3.3763,7.54045 -7.5412,7.54045 -4.1649,0 -5.4302,-3.950589 -7.5413,-7.54045 -4.6243,-7.863577 3.2912,-7.608522 7.5413,-7.540429 4.1643,0.06675 7.5412,3.375951 7.5412,7.540429 z" />
      <path
         inkscape:connector-curvature="0"
         style="fill:#000000;fill-opacity:1;stroke:none"
         id="path4203-8-6"
         d="m 1257.8657,87.122328 c 0,2.458555 -1.9932,4.45159 -4.452,4.45159 -2.4588,0 -5.3257,-5.487138 -5.3257,-7.945682 0,-2.458555 2.7698,-1.928062 5.2286,-1.928062 2.4588,0 4.5491,2.96361 4.5491,5.422154 z" />
      <path
         inkscape:connector-curvature="0"
         style="fill:none;stroke:#000000;stroke-width:3.02733302;stroke-linecap:butt;stroke-linejoin:miter;stroke-miterlimit:4;stroke-opacity:1;stroke-dasharray:none"
         id="path4207-2-1"
         d="m 1243.4605,82.303477 c -0.056,-2.652854 29.186,-5.085516 28.1112,2.23397 -2.9472,11.15489 -23.1594,19.822333 -28.1112,-2.23397 z" />
      <path
         inkscape:connector-curvature="0"
         style="fill:#111111;fill-opacity:1;stroke:#000000;stroke-width:3.02733302;stroke-linecap:butt;stroke-linejoin:miter;stroke-miterlimit:4;stroke-opacity:1;stroke-dasharray:none"
         id="path4156-8-8"
         d="m 1232.6314,70.91024 c 6.5571,6.297916 17.1396,11.574873 53.2555,3.425423 -0.5244,2.024657 -3.4519,2.724839 -6.3788,3.425423 3.5039,0.595715 9.6483,1.191442 15.4278,1.787169 -30.7125,2.778061 -65.8558,8.076889 -62.3045,-8.638015 z" />
      <path
         inkscape:connector-curvature="0"
         style="fill:#2d2d2d;fill-opacity:1;stroke:none"
         id="path4195-1-8-9"
         d="m 1296.9966,281.64446 c -9.009,18.17782 -58.7745,45.57842 -54.0544,-0.89347 0.6352,-19.20923 -6.673,-26.20146 -19.8685,-19.83498 -25.4082,15.5727 -34.5023,-18.54231 -20.6209,-35.13704 11.0501,-15.21911 -10.3105,-43.19873 -41.325,-6.98124 -34.6279,20.67861 -83.166,-53.16299 -46.0148,-68.71107 22.0246,-8.75151 -2.2085,-21.66218 -15.2346,-23.98849 31.6208,-15.39459 13.4975,-25.57359 31.2734,-43.920341 -45.2986,-25.366931 -61.8932,52.748151 -124.8128,79.900001 14.6193,-1.12375 33.9707,-8.44404 81.3623,-49.83495 -5.56,32.60841 -22.1774,70.48146 -80.0291,99.89119 11.692,7.16903 56.5238,-35.35743 67.5402,-50.3841 1.8513,6.40946 14.0414,22.13535 10.5979,29.31396 -18.6822,59.66309 -42.2194,76.98216 -68.2405,84.95756 29.3658,12.93882 65.9016,-44.80049 72.923,-70.03159 7.1709,16.39048 18.2792,32.90297 31.0302,40.87303 -19.8234,54.13668 -56.6889,74.62749 -89.8406,94.20986 47.8436,-0.12989 82.1796,-51.1402 95.3333,-85.39094 3.2008,7.01817 19.506,30.18847 25.9886,35.3313 -25.671,60.59734 -98.464,117.31662 -121.656,126.25361 32.138,8.48444 123.043,-87.77351 129.575,-120.79462 2.341,6.60211 17.985,22.27128 22.6028,27.81635 -48.8478,123.57557 -84.0575,127.96325 -126.919,155.07839 61.4006,5.18272 124.5978,-94.89606 134.0349,-148.25697 2.5788,5.39915 14.8487,21.77565 19.8166,26.69698 -13.562,82.29231 -50.5591,150.05 -104.8434,188.4008 69.5757,-22.10388 104.2414,-127.15702 114.142,-182.16172 6.9927,6.18061 23.072,14.3303 30.5031,17.20697 2.1804,42.07746 -17.6462,93.53311 -33.7405,122.12059 33.2439,-13.0701 45.6593,-96.30965 45.1616,-119.74246 6.46,3.38081 21.7165,8.97202 29.8207,9.67657 6.0098,20.19088 -3.4043,77.34998 -9.0507,79.24975 16.7158,-12.73668 20.663,-34.49084 21.7073,-77.54342 l 7.7681,-1.20886 c 32.2995,-64.09571 -13.9709,-79.38583 -9.4642,-111.24892 -1.3222,-1.17681 -3.7446,-0.77045 -5.466,-0.91173 z" />
      <path
         inkscape:connector-curvature="0"
         style="fill:#4d4d4c;fill-opacity:1;fill-rule:evenodd;stroke:#4d4d4c;stroke-width:1.96000004;stroke-linecap:round;stroke-linejoin:round;stroke-miterlimit:4;stroke-opacity:1;stroke-dasharray:none"
         id="rect75484-8-8-4-2"
         d="m 1257.2094,61.812322 c 18.2152,1.306608 16.8938,4.792249 37.8946,6.316532 -21.5461,-1.406639 -24.1475,-3.923016 -28.0939,-4.747851 -16.5067,-3.026233 -33.4116,1.466126 -44.3379,10.583607 14.9005,-11.699028 26.5352,-11.947642 34.5372,-12.152288 z" />
      <g
         style="display:inline"
         id="g4247-7-49-9-1-7"
         transform="matrix(-4.0208563,-1.9536791,-1.997206,3.933226,1037.2677,265.8767)">
        <path
           inkscape:connector-curvature="0"
           style="fill:#cc0000;fill-opacity:1"
           id="path4169-9-3-8-7-9"
           d="m -79.267854,37.659098 3.22197,-0.336562 c 1.456738,6.220835 -0.679196,15.831617 5.094503,29.80327 2.993533,3.323922 10.999397,4.668664 12.954478,2.36392 0.579005,-0.380056 1.002959,-3.570689 2.549372,-2.152085 0.772232,0.04193 2.431186,2.126753 3.495962,2.802753 0.149843,0.858593 5.097575,2.864254 6.616848,2.252282 -0.78643,0.788453 -0.850264,1.641783 -0.273521,2.502628 -1.400118,0.389525 -3.815401,0.427422 -5.231324,-3.434172 0,0 -2.038215,-0.675035 -3.927303,-2.887472 -1.563504,-0.494745 -2.235358,1.336984 -2.814706,1.65204 -5.10156,3.104311 -12.134162,-0.853286 -13.156499,-2.499618 -1.136759,-1.048247 -1.065167,-0.515909 -1.778838,-1.866287 -1.549064,-5.248323 -4.097285,-5.540865 -3.007522,-11.21046 z m 20.005326,39.113182 c 0.834439,0.168453 1.263893,0.275611 1.53167,0.612201 0.510143,0.67112 2.42371,3.786001 3.196788,4.215141 2.443769,2.774266 5.731929,0.865583 6.20573,1.038916 0,0 -0.200448,2.520253 -0.305949,1.704193 -0.617348,-0.351425 -0.900479,-0.112232 -1.336856,-0.676142 -0.739393,0.980298 -1.12655,1.004819 -0.831098,1.372657 -1.25032,2.322533 -6.144723,-5.75965 -6.144723,-5.75965 l -1.085861,-0.565819 c -0.831324,-0.779897 -1.100582,0.766664 -1.544451,1.523942 -0.52715,-1.317987 -0.828007,-2.260621 -3.257771,-1.170539 -0.635488,-0.315654 -4.810212,-2.418563 -7.392035,-4.955562 -0.423671,-0.330694 -1.054969,-1.791885 -0.732735,-3.31015 0.416858,1.770007 0.365837,2.253379 0.883976,2.822756 2.464763,2.344573 6.099649,4.546478 7.815418,4.197506 1.391492,-0.290251 1.825479,-0.958377 2.997897,-1.04945 z m -14.09475,-7.718467 c -1.221209,0.395293 -2.390012,0.164144 -4.287582,-0.86979 -3.984451,-3.058749 -3.815436,-5.202012 -5.986987,-7.210647 -2.219108,-1.469826 -3.077382,-0.574949 -5.843489,-0.1302 0,0 -0.047,-0.01497 0.04294,-0.05338 2.616811,-1.717189 5.789627,-2.286698 5.561201,-1.691909 1.939784,0.826992 1.200148,3.294334 4.648174,6.956199 2.417805,1.712567 4.712524,3.067564 5.893998,2.942864 z m 3.028344,7.29555 c 0.700478,1.923886 2.368145,4.272906 3.588461,5.684644 2.994466,3.898343 5.458703,5.444944 6.265976,6.028481 2.525147,1.405526 1.588671,2.459444 1.588671,2.459444 -0.573948,-0.614178 -0.426269,-1.259829 -1.642545,-0.272593 -0.479678,0.429119 -0.922628,1.043713 -0.775949,0.695515 0.377826,-0.80269 1.17e-4,-2.412768 -1.871908,-4.418352 -0.757708,-0.811767 -1.566626,-1.625568 -2.365546,-2.42225 -0.79892,-0.796682 -2.060935,-2.167546 -2.778654,-2.910838 -1.508553,-2.516611 -2.045936,-3.883492 -1.975292,-4.880712 0,0 -0.179535,0.367865 -0.03321,0.03666 z" />
      </g>
      <path
         inkscape:connector-curvature="0"
         style="fill:#2d2d2d;fill-opacity:1;stroke:none"
         id="path4197-2-5-5"
         d="m 1329.7524,453.61668 c -5.5442,15.76597 -16.6312,40.7671 -28.1252,62.48165 -16.9648,14.79741 -19.6017,20.25387 -24.8715,34.42865 l 15.7666,10.43889 c 12.1019,-10.92904 14.4197,-20.60766 21.9927,-36.12183 17.2902,-14.51324 18.5906,-15.16842 29.8075,-33.99965 z" />
      <g
         id="g41813-5-4"
         transform="matrix(-0.98717046,0.20928324,0.20928324,0.98717046,1620.8873,-480.26593)" />
      <path
         inkscape:connector-curvature="0"
         style="fill:#4d4d4c;fill-opacity:1;fill-rule:evenodd;stroke:#4d4d4c;stroke-width:3.3599999;stroke-linejoin:round;stroke-miterlimit:4;stroke-opacity:1;stroke-dasharray:none"
         id="rect75323-1-1-9-6-4-3"
         d="m 1113.8438,81.5 c -3.1329,0.06505 -6.9035,1.100728 -11.9688,3.84375 l -8.5312,5.9375 c 9.338,-6.13784 22.5503,-10.335748 28.5937,-6.96875 -2.3816,6.398273 -4.8497,20.33233 -11.7187,26.25 -4.4727,3.96739 -13.4135,2.60267 -15.6563,8.15625 -0.2934,0.77769 -0.6484,2.29723 -0.5625,4.09375 -0.3902,12.41095 15.5538,10.9817 18.4688,17.09375 0.221,1.27921 -0.3798,1.84197 -1.125,2.46875 -3.9838,3.49442 -9.8003,8.3638 -11.4688,12.90625 -4.0689,10.33185 -2.6159,22.46996 1.2188,31.9375 1.6699,4.02536 4.1652,7.45096 6.3124,10.84375 -1.1038,-1.91997 -2.0408,-3.90471 -3,-5.53125 -1.4519,-2.4622 -1.5115,-4.10905 -2.4374,-6.40625 -0.926,-2.29719 -1.5907,-4.49332 -2.0626,-6.625 -0.4718,-2.1317 -0.723,-4.19056 -0.8124,-6.15625 -0.4399,-6.66332 0.5475,-13.92659 3.4374,-19.59375 0.7226,-1.29675 1.4728,-1.93421 2.2188,-3.0625 1.5397,-1.57771 3.6153,-3.8225 5.2188,-4.71875 9.3734,-5.31318 3.5281,-9.64769 -2.125,-12.15625 -4.3021,-1.75102 -8.9081,-3.34459 -11.6876,-6.75 -2.9103,-11.35578 7.1142,-10.47891 13.5938,-15.09375 10.2361,-7.21851 8.41,-20.811984 14.3125,-27.5625 -3.2154,-1.475094 -6.1908,-2.989884 -10.2187,-2.90625 z m -6.4376,116.5625 c 0.5672,0.98641 1.1794,1.95226 1.875,2.84375 -0.6417,-0.92113 -1.2596,-1.87142 -1.875,-2.84375 z m 2,3 c 13.4063,19.13973 31.8225,27.2006 29.3126,25.6875 0.826,0.36315 1.7821,0.62977 2.7812,0.84375 7.2696,3.85093 14.3691,1.57518 20.9062,-2.46875 0.3523,-0.18052 0.6607,-0.41643 0.9688,-0.62495 9.1092,-5.92133 17.0875,-14.92122 22.7812,-14.9375 5.3769,0.96179 9.6914,2.592 10,8.875 -0.375,9.57542 -14.3224,33.9589 0.1407,44.75 15.1391,13.58129 24.1393,4.0944 32.1093,2.71875 3.9674,-1.13747 8.0258,2.40296 7.75,8.6875 -0.2681,2.32089 -0.3947,4.51591 -0.4062,6.625 2.4112,-14.91221 -1.088,-19.36889 -15.4688,-13.34375 -10.5132,4.2131 -17.0035,1.04615 -23.3437,-4.25 -0.3476,-0.27737 -0.6688,-0.59269 -0.9687,-0.875 -9.4937,-9.38987 -3.6941,-29.80779 1.0937,-38.59375 l 0.2187,-0.21875 c 8.0039,-13.66491 -7.5266,-24.3127 -19.4687,-12.71875 l -14.875,11.71875 c -1.341,0.79624 -3.8482,2.10851 -6.875,3.1875 -18.9498,5.21204 -36.5048,-14.06656 -38.9063,-16.53125 -2.668,-2.73834 -5.8095,-6.07118 -7.8594,-8.67188 z m 126.3438,80.15625 c 0,0.3948 -0.01,0.79991 0,1.1875 0.036,-0.61021 0.066,-1.20022 0.125,-1.84375 z m 0,1.1875 c -0.5861,9.89979 1.8335,15.54896 6.5312,20.40625 -3.6204,-4.65207 -5.7797,-10.32226 -6.375,-17.21875 -0.089,-1.03518 -0.1372,-2.09612 -0.1562,-3.1875 z m 6.5312,20.40625 c 2.6999,3.46909 6.2295,6.34947 10.5313,8.78125 0.5198,0.32549 1.0076,0.57554 1.5,0.84375 17.6798,8.98336 38.0507,-16.54096 41.1563,-19.375 0.7308,-0.88961 1.2309,-1.60344 1.7808,-2.2812 -11.6856,10.41493 -23.8253,23.83132 -37.5625,21.3125 -2.9694,-0.47816 -5.858,-0.67747 -8.6875,-2.0625 -3.4015,-2.49532 -6.3611,-4.78101 -8.7188,-7.21875 z" />
      <path
         inkscape:connector-curvature="0"
         style="fill:#4d4d4c;fill-opacity:1;fill-rule:evenodd;stroke:#4d4d4c;stroke-width:2;stroke-miterlimit:4;stroke-opacity:1;stroke-dasharray:none"
         id="rect75484-8-5-3-1-36-1"
         d="m 1305.5865,104.05112 c 8.5228,4.84857 14.1764,8.63435 20.2454,15.04685 1.7782,1.84849 3.4829,3.69304 5.1164,5.53235 1.6335,1.83931 3.1958,3.67347 4.6894,5.50107 1.4937,1.8277 2.9186,3.64905 4.2773,5.46282 1.3588,1.81368 2.6514,3.61988 3.8803,5.41731 1.2288,1.79743 2.394,3.58608 3.498,5.36484 1.1039,1.77876 2.1467,3.54763 3.1308,5.3054 0.984,1.75777 1.9095,3.50444 2.7786,5.2389 0.8692,1.73446 1.6821,3.45661 2.4414,5.16534 0.7591,1.70873 1.4647,3.40403 2.1189,5.08471 0.6543,1.68077 1.2574,3.34682 1.8117,4.99712 0.5544,1.6504 1.06,3.28485 1.5194,4.90246 0.4594,1.6176 0.8725,3.21826 1.242,4.80074 0.3694,1.58259 0.6951,3.14692 0.9795,4.69207 0.2844,1.54505 0.5276,3.07092 0.732,4.57621 0.2045,1.5054 0.3702,2.9902 0.4996,4.45341 0.1295,1.46321 0.2227,2.90483 0.2821,4.32364 0.06,1.41871 0.085,2.81471 0.08,4.1866 -0.01,1.37199 -0.042,2.71996 -0.1081,4.0428 -0.066,1.32284 -0.1599,2.62046 -0.2807,3.89174 -0.1206,1.27138 -0.2676,2.51632 -0.4384,3.73381 -0.1707,1.21749 -0.3653,2.40754 -0.581,3.56882 -0.2159,1.16129 -0.4529,2.29391 -0.7088,3.39667 -0.2559,1.10276 -0.5305,2.17564 -0.8215,3.21755 -0.2909,1.04191 -0.5982,2.05273 -0.9193,3.03137 -0.3211,0.97874 -0.6559,1.92518 -1.0022,2.83822 -0.3461,0.91315 -0.7036,1.79289 -1.0699,2.63802 -0.3663,0.84523 -0.7414,1.65585 -1.1229,2.43075 -0.3814,0.775 -0.7691,1.51417 -1.1607,2.21641 -3.0022,5.67615 -9.5417,8.80883 -13.9443,12.45556 -3.298,2.79937 -6.0469,5.51721 -8.2752,8.20548 -2.2282,2.68828 -3.9358,5.34678 -5.1511,8.02738 -1.2152,2.6806 -1.9382,5.3832 -2.1971,8.15957 -0.2589,2.77637 -0.053,5.6264 0.5869,8.60197 0.6408,2.97546 1.7172,6.07646 3.201,9.35456 1.4838,3.27799 3.375,6.73329 5.6452,10.41735 2.2702,3.68406 2.0214,10.12098 5.0214,14.31444 -19.2534,-38.23188 -17.2282,-44.6472 -5.9033,-59.27942 1.9561,-2.4706 7.5382,-6.45921 9.6127,-8.28722 6.9436,-5.86848 11.372,-6.31229 15.8954,-18.55422 7.2316,-18.99157 5.4505,-52.37276 -6.4864,-74.12899 -12.9184,-21.83868 -26.8096,-43.42316 -49.1139,-54.34446 z" />
      <path
         inkscape:connector-curvature="0"
         style="fill:#4d4d4c;fill-opacity:1;fill-rule:evenodd;stroke:#4d4d4c;stroke-width:2.35205793;stroke-miterlimit:4;stroke-opacity:1;stroke-dasharray:none"
         id="rect75835-4-2-4-2"
         d="m 1291.4837,558.73709 0.5735,1.39054 15.7291,-18.50734 4.1756,-16.81234 29.3728,-37.35303 -25.8485,38.58308 -4.4421,15.92833 -17.6046,22.09213 -7.7532,-5.30022 -9.5583,-7.16837 z" />
    </g>
    <circle
       style="fill:none;stroke:#aa0000;stroke-width:5;stroke-opacity:1"
       id="circle4455-1-3"
       transform="matrix(1.8927906,0,0,1.8927906,-247.28286,-742.38091)"
       r="42"
       cy="423.20901"
       cx="426.46701"
       sodipodi:cx="426.46701"
       sodipodi:cy="423.20901"
       sodipodi:rx="42"
       sodipodi:ry="42"
       d="m 468.46701,423.20901 c 0,23.19596 -18.80404,42 -42,42 -23.19596,0 -42,-18.80404 -42,-42 0,-23.19595 18.80404,-42 42,-42 23.19596,0 42,18.80405 42,42 z" />
    <use
       xlink:href="#eagle_dexter-4"
       height="1069.9548"
       width="2286.4697"
       y="0"
       x="0"
       id="eagle_sinister-3"
       transform="matrix(-1,0,0,1,847.01783,0)" />
    <path
       inkscape:connector-curvature="0"
       style="fill:#2d2d2d;fill-opacity:1;stroke:none"
       id="smoothening_line_1-4"
       d="m 422.42533,193.625 c -1.9694,0.25428 -5.9458,2.31133 -6.2812,0.28125 3.4384,102.70479 4.3226,199.28532 -8.0625,263.75 5.5727,7.99512 15.4375,23.13731 15.4375,24.65625 0,-1.51894 9.8336,-16.66113 15.4062,-24.65625 -12.385,-64.46468 -11.4696,-161.04521 -8.0312,-263.75 -0.4472,2.70677 -7.375,-1.84047 -7.375,0.28125 0,-0.53043 -0.4373,-0.64726 -1.0938,-0.5625 z" />
  </g>
</svg>
